<svg width="135.66500549316407px" height="59.359999084472655px" xmlns="http://www.w3.org/2000/svg" viewBox="182.16749725341796 45.32000045776367 135.66500549316407 59.359999084472655" style="background: none;" preserveAspectRatio="xMidYMid"><defs><linearGradient id="editing-gradient-gradient" x1="0" x2="1" y1="0.5" y2="0.5" gradientUnits="objectBoundingBox"><stop offset="0" stop-color="#f0f"></stop><stop offset="1" stop-color="#00ffff"></stop></linearGradient></defs><g><g transform="translate(207.53705520182848, 83.75000381469727)"><path d="M10.18-11.55L10.18-11.55L10.18-11.55Q10.55-12.30 10.55-13L10.55-13L10.55-13Q10.55-13.70 10.48-14.09L10.48-14.09L10.48-14.09Q10.40-14.48 10.23-14.78L10.23-14.78L10.23-14.78Q9.85-15.43 9.10-15.43L9.10-15.43L9.10-15.43Q8.18-15.43 7.43-14.75L7.43-14.75L7.43-14.75Q6.63-14.05 6.63-12.95L6.63-12.95L6.63-12.95Q6.63-12.25 7.11-11.71L7.11-11.71L7.11-11.71Q7.60-11.18 8.35-10.68L8.35-10.68L8.35-10.68Q9.10-10.18 9.95-9.68L9.95-9.68L9.95-9.68Q10.80-9.18 11.55-8.58L11.55-8.58L11.55-8.58Q13.28-7.20 13.28-5.35L13.28-5.35L13.28-5.35Q13.28-4.10 12.61-3.04L12.61-3.04L12.61-3.04Q11.95-1.98 10.85-1.20L10.85-1.20L10.85-1.20Q8.45 0.50 5.28 0.50L5.28 0.50L5.28 0.50Q2.70 0.50 1.38-0.34L1.38-0.34L1.38-0.34Q0.05-1.18 0.05-2.45L0.05-2.45L0.05-2.45Q0.05-4.73 1.83-5.30L1.83-5.30L1.83-5.30Q2.33-5.48 3.09-5.48L3.09-5.48L3.09-5.48Q3.85-5.48 4.73-5.15L4.73-5.15L4.73-5.15Q4.33-4.13 4.33-3.20L4.33-3.20L4.33-3.20Q4.33-1.20 5.75-1.20L5.75-1.20L5.75-1.20Q6.68-1.20 7.44-1.88L7.44-1.88L7.44-1.88Q8.20-2.55 8.20-3.31L8.20-3.31L8.20-3.31Q8.20-4.08 7.71-4.63L7.71-4.63L7.71-4.63Q7.23-5.18 6.50-5.61L6.50-5.61L6.50-5.61Q5.78-6.05 4.94-6.48L4.94-6.48L4.94-6.48Q4.10-6.90 3.38-7.50L3.38-7.50L3.38-7.50Q1.68-8.88 1.68-11.08L1.68-11.08L1.68-11.08Q1.68-12.50 2.38-13.61L2.38-13.61L2.38-13.61Q3.08-14.73 4.20-15.48L4.20-15.48L4.20-15.48Q6.45-17 9.21-17L9.21-17L9.21-17Q11.98-17 13.31-16.18L13.31-16.18L13.31-16.18Q14.65-15.35 14.65-13.95L14.65-13.95L14.65-13.95Q14.65-12.73 13.70-11.95L13.70-11.95L13.70-11.95Q12.88-11.30 11.88-11.30L11.88-11.30L11.88-11.30Q10.88-11.30 10.18-11.55ZM17.30 0L14.43 0L18.95-16.50L24.18-16.50L25.33-7.08L29.98-16.50L34.35-16.50L34.80-4.15L34.80-4.15Q34.90-1.70 36.10-0.95L36.10-0.95L36.10-0.95Q35.83-0.45 35.03 0.03L35.03 0.03L35.03 0.03Q34.23 0.50 33.16 0.50L33.16 0.50L33.16 0.50Q32.10 0.50 31.48 0.20L31.48 0.20L31.48 0.20Q30.85-0.10 30.50-0.60L30.50-0.60L30.50-0.60Q29.88-1.50 29.88-3.23L29.88-3.23L29.88-10.95L24.95 0L21.85 0L20.10-11.23L17.30 0ZM48.15 0.50L48.15 0.50L48.15 0.50Q44.95 0.50 44.65-4.05L44.65-4.05L40.35-4.05L40.35-4.05Q39.85-2.90 39.50-1.90L39.50-1.90L38.85 0L35.35 0L43.23-16.50L48.60-16.50L49.65-4.35L49.65-4.35Q49.90-1.73 50.90-0.95L50.90-0.95L50.90-0.95Q50.17 0.50 48.15 0.50ZM42.50-9.05L41.13-5.88L44.58-5.88L44.27-12.30L44.27-12.98L42.50-9.05ZM62.10-11.55L62.10-11.55L62.10-11.55Q62.47-12.30 62.47-13L62.47-13L62.47-13Q62.47-13.70 62.40-14.09L62.40-14.09L62.40-14.09Q62.32-14.48 62.15-14.78L62.15-14.78L62.15-14.78Q61.77-15.43 61.02-15.43L61.02-15.43L61.02-15.43Q60.10-15.43 59.35-14.75L59.35-14.75L59.35-14.75Q58.55-14.05 58.55-12.95L58.55-12.95L58.55-12.95Q58.55-12.25 59.04-11.71L59.04-11.71L59.04-11.71Q59.52-11.18 60.27-10.68L60.27-10.68L60.27-10.68Q61.02-10.18 61.88-9.68L61.88-9.68L61.88-9.68Q62.72-9.18 63.47-8.58L63.47-8.58L63.47-8.58Q65.20-7.20 65.20-5.35L65.20-5.35L65.20-5.35Q65.20-4.10 64.54-3.04L64.54-3.04L64.54-3.04Q63.88-1.98 62.77-1.20L62.77-1.20L62.77-1.20Q60.38 0.50 57.20 0.50L57.20 0.50L57.20 0.50Q54.63 0.50 53.30-0.34L53.30-0.34L53.30-0.34Q51.97-1.18 51.97-2.45L51.97-2.45L51.97-2.45Q51.97-4.73 53.75-5.30L53.75-5.30L53.75-5.30Q54.25-5.48 55.01-5.48L55.01-5.48L55.01-5.48Q55.77-5.48 56.65-5.15L56.65-5.15L56.65-5.15Q56.25-4.13 56.25-3.20L56.25-3.20L56.25-3.20Q56.25-1.20 57.67-1.20L57.67-1.20L57.67-1.20Q58.60-1.20 59.36-1.88L59.36-1.88L59.36-1.88Q60.13-2.55 60.13-3.31L60.13-3.31L60.13-3.31Q60.13-4.08 59.64-4.63L59.64-4.63L59.64-4.63Q59.15-5.18 58.42-5.61L58.42-5.61L58.42-5.61Q57.70-6.05 56.86-6.48L56.86-6.48L56.86-6.48Q56.02-6.90 55.30-7.50L55.30-7.50L55.30-7.50Q53.60-8.88 53.60-11.08L53.60-11.08L53.60-11.08Q53.60-12.50 54.30-13.61L54.30-13.61L54.30-13.61Q55-14.73 56.13-15.48L56.13-15.48L56.13-15.48Q58.38-17 61.14-17L61.14-17L61.14-17Q63.90-17 65.24-16.18L65.24-16.18L65.24-16.18Q66.58-15.35 66.58-13.95L66.58-13.95L66.58-13.95Q66.58-12.73 65.63-11.95L65.63-11.95L65.63-11.95Q64.80-11.30 63.80-11.30L63.80-11.30L63.80-11.30Q62.80-11.30 62.10-11.55ZM76.42-1.88L76.42-1.88L76.42-1.88Q76.42-3.63 77.13-7.13L77.13-7.13L73.42-7.13L72.05 0L66.83 0L70-16.50L75.27-16.50L73.83-9.13L77.53-9.13L78.90-16.50L84.17-16.50L84.17-16.50Q83.83-14.65 83.38-12.58L83.38-12.58L82.53-8.50L82.53-8.50Q81.58-3.75 81.58-1.68L81.58-1.68L81.58-1.68Q81.58-0.83 81.85-0.35L81.85-0.35L81.85-0.35Q80.60 0.50 79.14 0.50L79.14 0.50L79.14 0.50Q77.67 0.50 77.05-0.20L77.05-0.20L77.05-0.20Q76.42-0.90 76.42-1.88Z" fill="url(#editing-gradient-gradient)"></path></g></g><style>text {
  font-size: 64px;
  font-family: Arial Black;
  dominant-baseline: central;
  text-anchor: middle;
}</style></svg>